<svg width="34" height="34" viewBox="0 0 34 34" fill="none" xmlns="http://www.w3.org/2000/svg">
<path d="M15.5922 15.0517C15.9841 16.5757 13.5507 17.2673 12.8488 18.7093L11.02 19.3625L9.32179 19.9503C9.18207 19.3625 8.53182 19.3625 7.55828 18.7746C7.24269 19.4713 7.76724 19.4607 8.08079 20.3422C7.39404 20.6162 6.54003 20.3277 5.72616 20.7994C5.98772 21.5497 6.52091 21.0507 7.16638 21.3872C6.51804 21.7038 5.43936 22.0818 5.92538 22.2363C6.68807 22.6731 7.66479 22.0139 7.9548 21.9671C7.6865 22.5403 6.717 23.0729 6.64387 23.3466C7.8021 23.0439 8.2888 23.2692 8.66865 22.4322C9.62195 22.3997 10.1655 22.2423 10.9547 21.0606L14.0899 19.689C15.4646 19.6352 16.6092 18.1729 16.2453 17.5989L15.5921 15.0516L15.5922 15.0517Z" fill="#1A1A1A"/>
<path d="M15.1486 29.0142L13.9076 26.6629L14.7567 24.4421L15.5405 21.8949L15.8671 20.4579L21.4189 20.0007L22.9212 22.2215L21.6148 25.2913L21.7455 28.4265L21.0923 30.8431L19.9166 30.4512L19.4594 27.316L19.3288 25.4219L19.786 24.1809L19.3941 23.9196L18.545 23.789L17.0428 24.3768L15.9977 26.4016L15.8671 29.8632L15.1486 29.0141L15.1486 29.0142Z" fill="#1A1A1A"/>
<path d="M15.5656 14.0553C16.4155 13.7052 17.2756 13.3218 17.4759 15.0873L15.2964 19.779C14.587 18.5704 14.1081 17.8375 13.1904 17.7122L15.5656 14.0554V14.0553Z" fill="#F2F2F2" stroke="#333333" stroke-linejoin="round"/>
<path d="M17.1089 13.4725L21.9088 13.1089C24.7459 17.2319 23.6541 20.5267 22.636 23.2175C20.7154 22.6787 19.7906 23.2778 19.2203 24.2821L18.13 24.2756C17.2321 22.9245 16.3342 22.5636 15.4363 22.563C15.4205 22.6 14.6401 14.9425 17.109 13.4725L17.1089 13.4725Z" fill="#F2F2F2" stroke="#333333"/>
<path d="M14.9998 19.945C17.4996 21.6778 21.8155 20.4942 23.6539 19.945L23.5812 21.6177C20.3607 22.6118 16.7307 22.3901 14.9996 21.4722L14.9996 19.945L14.9998 19.945Z" fill="#F2F2F2" stroke="#333333" stroke-linejoin="round"/>
<path d="M19.6563 24.0903L19.2199 26.1993C20.1473 26.0594 21.0713 25.9298 21.6198 26.9266L22.2016 23.5813C21.5024 23.1681 20.7337 23.1797 19.6563 24.0903V24.0903Z" fill="#F2F2F2" stroke="#333333" stroke-linejoin="round"/>
<path d="M14.867 23.3599L14.0402 25.6394C14.9773 25.6772 16.0546 25.6517 16.4049 26.7341L17.5354 23.9953C16.9268 23.4575 16.0971 22.6691 14.867 23.3599L14.867 23.3599Z" fill="#F2F2F2" stroke="#333333" stroke-linejoin="round"/>
<path d="M19.4384 26.8547C19.4384 26.8547 20.1657 25.9093 21.1111 26.6365C21.6904 27.0821 21.911 28.8183 21.911 28.8183C21.1453 28.8753 20.5215 28.3645 19.5839 29.1092L19.4384 26.8547L19.4384 26.8547Z" fill="#F2F2F2" stroke="#333333" stroke-linejoin="round"/>
<path d="M14.1472 26.1535C14.1472 26.1535 15.9653 25.7898 16.3289 27.0261C16.5351 27.7273 16.838 28.5534 16.838 28.5534C16.0722 28.6104 15.4485 28.0995 14.5108 28.8442L14.1472 26.1535Z" fill="#F2F2F2" stroke="#333333" stroke-linejoin="round"/>
<path d="M16.3094 28.8177C15.8339 28.6347 15.3727 28.3949 14.7094 28.9631C13.423 29.6335 11.9759 29.6104 10.855 30.9994L11.0004 31.7266C13.6252 32.6463 15.1914 31.89 16.6728 30.9994L16.3092 28.8176L16.3094 28.8177Z" fill="#F2F2F2" stroke="#333333" stroke-linejoin="round"/>
<path d="M21.5103 29.0355C21.0348 28.8525 20.5736 28.6127 19.9104 29.1809C18.6239 29.8513 17.1768 29.8282 16.0559 31.2172L16.2013 31.9444C18.8261 32.8641 20.3924 32.1078 21.8738 31.2172L21.5101 29.0354L21.5103 29.0355Z" fill="#F2F2F2" stroke="#333333" stroke-linejoin="round"/>
<path d="M18.8806 19.0586C18.6047 19.0325 11.1007 21.8469 11.1007 21.8469C10.8369 22.4902 10.6373 23.1223 11.7298 23.5303L19.6956 20.2493C19.8213 19.7249 19.646 19.2972 18.8807 19.0586L18.8806 19.0586Z" fill="black"/>
<path d="M16.668 21.8261L17.7302 24.505L18.9772 23.8122L17.8688 21.1334L19.4853 20.5329L19.0235 19.9325L13.0655 22.5651L13.2964 23.2579L16.668 21.8261L16.668 21.8261Z" fill="#333333" stroke="#1A1A1A"/>
<path d="M12.4923 18.7529C14.1342 18.0801 14.1621 19.05 14.6747 20.027L10.3654 22.0508C10.3721 20.9735 10.2732 20.0179 9.52359 19.812L12.4925 18.7529L12.4923 18.7529Z" fill="#F2F2F2" stroke="#333333" stroke-linejoin="round"/>
<path d="M17.4994 18.7781L10.8949 20.995L11.6339 22.6115C11.6339 22.6115 12.2804 22.75 12.0495 22.4267C11.8186 22.1034 11.4953 21.1797 11.4953 21.1797L17.5454 19.1014L17.4992 18.7781L17.4994 18.7781Z" fill="black"/>
<path d="M16.2058 18.9165L17.499 20.9487L18.6536 20.4406L17.5913 18.2699L16.2058 18.9165H16.2058Z" fill="#333333" stroke="#1A1A1A" stroke-linejoin="round"/>
<path d="M22.007 14.6461C22.399 16.1701 22.9701 17.5148 23.1827 19.2183L20.962 20.4593L19.5251 21.3084C19.3853 20.7205 19.3883 20.1327 18.4147 19.5448C18.0991 20.2416 18.5234 20.9382 19.0678 21.6349C18.0578 21.3547 16.9425 20.7061 16.2594 21.5696C16.4882 22.4835 17.2922 22.2473 18.0229 22.1575C17.3746 22.474 16.2959 22.852 16.7819 23.0066C17.5446 23.4433 17.9209 23.1074 18.3495 22.8759C17.7579 23.4953 17.5735 23.8432 17.5004 24.1169C18.5662 24.1375 19.0147 23.3863 19.3945 22.5494C20.3478 22.5168 21.3486 22.8166 22.1379 21.6349L25.0117 19.153C25.7986 18.2501 25.1143 17.7676 24.7504 17.1935L22.007 14.6462L22.007 14.6461Z" fill="#1A1A1A"/>
<path d="M21.4173 14.0582C21.7024 13.1844 21.9689 12.2812 23.4421 13.2745L25.5975 17.9771C24.2175 17.7326 23.3492 17.6214 22.6584 18.2383L21.4174 14.0582L21.4173 14.0582Z" fill="#F2F2F2" stroke="#333333" stroke-linejoin="round"/>
<path d="M22.8544 18.8262C24.2776 17.7666 24.8414 18.5806 25.467 18.9568L21.6133 22.5491C21.3521 21.5039 21.0189 20.6028 20.2417 20.5897L22.8543 18.8262L22.8544 18.8262Z" fill="#F2F2F2" stroke="#333333" stroke-linejoin="round"/>
<path d="M18.6761 21.0471L20.309 20.9164C20.9057 21.1463 21.2333 21.5375 20.9621 22.2881L19.2639 23.2025C18.1399 22.2778 18.2451 21.6262 18.6761 21.0471V21.0471Z" fill="#F2F2F2" stroke="#333333" stroke-linejoin="round"/>
<path d="M14.8298 8.09813C14.9507 7.46424 15.0808 3.97616 15.6149 3.18619C16.9922 1.46799 20.4812 0.552092 22.9172 2.73096C24.5224 5.16063 24.5223 7.32335 24.7734 9.52777C24.9496 13.6452 21.7666 13.3844 20.0379 15.019C19.5274 15.0477 19.0568 15.5736 18.4701 14.6532C17.9207 13.5977 18.1388 12.5575 14.9094 13.9147C14.4263 14.3212 13.9679 14.3271 13.5606 13.5078C13.0802 11.5232 14.1446 9.84881 14.8299 8.09834L14.8298 8.09813Z" fill="#F2F2F2" stroke="#333333" stroke-linejoin="round"/>
<path d="M22.8464 5.17785C23.1739 6.6551 22.4397 7.54141 22.0574 8.62354C20.4249 7.52226 19.2343 6.53142 17.8103 6.50885C16.9127 6.63598 16.7998 6.41884 15.6026 7.28843C15.1059 6.78138 15.1362 6.14242 15.3627 5.45434C17.9991 6.46884 20.817 5.68911 22.8464 5.17783L22.8464 5.17785Z" fill="black"/>
<path d="M15.2867 4.53343C18.0731 5.75769 21.7802 5.08136 23.8369 4.26398L23.9199 4.72064C20.8883 5.49602 17.703 6.31678 15.0438 4.96994L15.2867 4.53344L15.2867 4.53343Z" fill="#800000"/>
<path d="M15.5098 13.6433C16.2753 12.8081 16.4012 11.4284 17.811 11.1419C18.2847 12.0659 18.2065 12.8539 18.3403 13.6941C17.7615 13.2623 16.5302 13.4221 15.5098 13.6433L15.5098 13.6433Z" fill="black"/>
<path d="M14.7526 13.4491C14.7678 13.6384 14.7217 13.8247 14.6246 13.9672C14.5274 14.1097 14.3871 14.1966 14.2344 14.2089C14.0818 14.2211 13.9294 14.1577 13.8108 14.0326C13.6921 13.9074 13.6169 13.7308 13.6017 13.5415C13.5865 13.3523 13.6326 13.1659 13.7297 13.0234C13.8269 12.881 13.9672 12.794 14.1199 12.7818C14.2725 12.7695 14.4249 12.8329 14.5436 12.9581C14.6622 13.0832 14.7374 13.2599 14.7526 13.4491Z" fill="black"/>
<path d="M19.7865 14.3888C19.8017 14.578 19.7435 14.7654 19.6247 14.9096C19.506 15.0538 19.3364 15.1431 19.1532 15.1578C18.9701 15.1725 18.7884 15.1114 18.6481 14.988C18.5079 14.8646 18.4206 14.6889 18.4054 14.4997C18.3902 14.3104 18.4484 14.1231 18.5671 13.9789C18.6859 13.8347 18.8555 13.7454 19.0386 13.7307C19.2218 13.716 19.4034 13.7771 19.5437 13.9005C19.6839 14.0239 19.7713 14.1996 19.7865 14.3888Z" fill="black"/>
<path d="M15.5656 10.3028C16.5548 9.28012 16.5223 9.50133 17.9535 8.30411C19.094 9.15467 19.4097 10.0714 20.1125 10.9571C18.8734 9.52848 17.4798 9.07038 15.5656 10.3028H15.5656Z" fill="#999999"/>
<path d="M11.6344 22.1494L9.78698 22.8422L10.1565 23.6273L11.7729 22.9807L11.6344 22.1494H11.6344Z" fill="black"/>
<path d="M15.6453 17.2678L17.599 17.7604L20.5522 17.9446L18.0988 17.2255L18.2257 15.1528L17.6758 17.0563L15.6454 17.2678L15.6453 17.2678Z" fill="#B3B3B3"/>
<path d="M20.4266 6.94663C20.9791 7.11772 21.4479 7.40619 22.5416 6.81973L21.9494 8.04644L20.4266 6.94665V6.94663Z" fill="white"/>
</svg>
